<mxfile host="app.diagrams.net" modified="2024-04-16T09:52:38.880Z" agent="Mozilla/5.0 (Windows NT 10.0; Win64; x64) AppleWebKit/537.36 (KHTML, like Gecko) Chrome/123.0.0.0 Safari/537.36" version="24.2.5" etag="b1qmuhEph8fefKvnNwBy" type="github">
  <diagram name="Sayfa -1" id="v7Ot_3TcL9q4BlVdiXYx">
    <mxGraphModel>
      <root>
        <mxCell id="0" />
        <mxCell id="1" parent="0" />
      </root>
    </mxGraphModel>
  </diagram>
</mxfile>
